<svg width="90" height="90" viewBox="0 0 90 90" fill="none" xmlns="http://www.w3.org/2000/svg">
<path d="M8.18935 14.5251C7.79882 14.1346 7.16566 14.1346 6.77513 14.5251C6.38461 14.9156 6.38461 15.5488 6.77513 15.9393L8.18935 14.5251ZM10.3107 19.4749C10.7012 19.8654 11.3344 19.8654 11.7249 19.4749C12.1154 19.0844 12.1154 18.4512 11.7249 18.0607L10.3107 19.4749ZM10.6929 18.2929C10.3024 18.6834 10.3024 19.3166 10.6929 19.7071C11.0834 20.0976 11.7166 20.0976 12.1071 19.7071L10.6929 18.2929ZM22.0066 9.80761C22.3972 9.41709 22.3972 8.78392 22.0066 8.3934C21.6161 8.00287 20.9829 8.00287 20.5924 8.3934L22.0066 9.80761ZM27 14C27 21.1797 21.1797 27 14 27V29C22.2843 29 29 22.2843 29 14H27ZM14 27C6.8203 27 1 21.1797 1 14H-1C-1 22.2843 5.71573 29 14 29V27ZM1 14C1 6.8203 6.8203 1 14 1V-1C5.71573 -1 -1 5.71573 -1 14H1ZM14 1C21.1797 1 27 6.8203 27 14H29C29 5.71573 22.2843 -1 14 -1V1ZM6.77513 15.9393L10.3107 19.4749L11.7249 18.0607L8.18935 14.5251L6.77513 15.9393ZM12.1071 19.7071L22.0066 9.80761L20.5924 8.3934L10.6929 18.2929L12.1071 19.7071Z" transform="translate(3 3) scale(3)" fill="#6FCF97"/>
</svg>
