<svg width="588" height="512" viewBox="0 0 588 512" fill="none" xmlns="http://www.w3.org/2000/svg">
<path fill-rule="evenodd" clip-rule="evenodd" d="M8.61111 3.85714C8.61111 2.79202 9.38218 1.92857 10.3333 1.92857H29.2778C30.2289 1.92857 31 2.79202 31 3.85714C31 4.92226 30.2289 5.78571 29.2778 5.78571H10.3333C9.38218 5.78571 8.61111 4.92226 8.61111 3.85714Z" transform="scale(18.963)" fill="white"/>
<path fill-rule="evenodd" clip-rule="evenodd" d="M8.61111 23.1429C8.61111 22.0777 9.38218 21.2143 10.3333 21.2143H29.2778C30.2289 21.2143 31 22.0777 31 23.1429C31 24.208 30.2289 25.0714 29.2778 25.0714H10.3333C9.38218 25.0714 8.61111 24.208 8.61111 23.1429Z" transform="scale(18.963)" fill="white"/>
<path fill-rule="evenodd" clip-rule="evenodd" d="M8.61111 13.5C8.61111 12.4349 9.38218 11.5714 10.3333 11.5714H29.2778C30.2289 11.5714 31 12.4349 31 13.5C31 14.5651 30.2289 15.4286 29.2778 15.4286H10.3333C9.38218 15.4286 8.61111 14.5651 8.61111 13.5Z" transform="scale(18.963)" fill="white"/>
<path d="M0 1.92857C0 0.863451 0.771065 0 1.72222 0H5.16667C6.11782 0 6.88889 0.863451 6.88889 1.92857V5.78571C6.88889 6.85083 6.11782 7.71429 5.16667 7.71429H1.72222C0.771065 7.71429 0 6.85083 0 5.78571V1.92857Z" transform="scale(18.963)" fill="white"/>
<path fill-rule="evenodd" clip-rule="evenodd" d="M5.16667 1.92857H1.72222V5.78571H5.16667V1.92857ZM1.72222 0C0.771065 0 0 0.863451 0 1.92857V5.78571C0 6.85083 0.771065 7.71429 1.72222 7.71429H5.16667C6.11782 7.71429 6.88889 6.85083 6.88889 5.78571V1.92857C6.88889 0.863451 6.11782 0 5.16667 0H1.72222Z" transform="scale(18.963)" fill="white"/>
<path d="M0 11.5714C0 10.5063 0.771065 9.64286 1.72222 9.64286H5.16667C6.11782 9.64286 6.88889 10.5063 6.88889 11.5714V15.4286C6.88889 16.4937 6.11782 17.3571 5.16667 17.3571H1.72222C0.771065 17.3571 0 16.4937 0 15.4286V11.5714Z" transform="scale(18.963)" fill="white"/>
<path fill-rule="evenodd" clip-rule="evenodd" d="M5.16667 11.5714H1.72222V15.4286H5.16667V11.5714ZM1.72222 9.64286C0.771065 9.64286 0 10.5063 0 11.5714V15.4286C0 16.4937 0.771065 17.3571 1.72222 17.3571H5.16667C6.11782 17.3571 6.88889 16.4937 6.88889 15.4286V11.5714C6.88889 10.5063 6.11782 9.64286 5.16667 9.64286H1.72222Z" transform="scale(18.963)" fill="white"/>
<path fill-rule="evenodd" clip-rule="evenodd" d="M5.16667 21.2143H1.72222V25.0714H5.16667V21.2143ZM1.72222 19.2857C0.771065 19.2857 0 20.1492 0 21.2143V25.0714C0 26.1365 0.771065 27 1.72222 27H5.16667C6.11782 27 6.88889 26.1365 6.88889 25.0714V21.2143C6.88889 20.1492 6.11782 19.2857 5.16667 19.2857H1.72222Z" transform="scale(18.963)" fill="white"/>
</svg>
