<svg width="664" height="512" viewBox="0 0 664 512" fill="none" xmlns="http://www.w3.org/2000/svg">
<path d="M13.5 1.89474C13.5 0.848303 14.3954 0 15.5 0H21.5C22.6046 0 23.5 0.848303 23.5 1.89474V26.5263H13.5V1.89474Z" transform="translate(-18.963) scale(18.963)" fill="white"/>
<path d="M1.5 7.57895C1.5 6.53251 2.39543 5.68421 3.5 5.68421H9.5C10.6046 5.68421 11.5 6.53251 11.5 7.57895V26.5263H1.5V7.57895Z" transform="translate(-18.963) scale(18.963)" fill="white"/>
<path d="M26 17.0526C26 16.0062 26.8954 15.1579 28 15.1579H34C35.1046 15.1579 36 16.0062 36 17.0526V26.5263H26V17.0526Z" transform="translate(-18.963) scale(18.963)" fill="white"/>
</svg>
